<?xml version="1.0" standalone="no"?>
<!DOCTYPE svg PUBLIC "-//W3C//DTD SVG 20010904//EN"
 "http://www.w3.org/TR/2001/REC-SVG-20010904/DTD/svg10.dtd">
<svg version="1.0" xmlns="http://www.w3.org/2000/svg"
 width="450.000000pt" height="450.000000pt" viewBox="0 0 450.000000 450.000000"
 preserveAspectRatio="xMidYMid meet">
<metadata>
Created by potrace 1.14, written by Peter Selinger 2001-2017
</metadata>
<g transform="translate(0.000000,450.000000) scale(0.100000,-0.100000)"
fill="#000000" stroke="none">
<path d="M2090 3045 c-153 -31 -281 -98 -397 -208 -68 -65 -163 -190 -163
-216 0 -7 31 -11 93 -11 91 0 94 1 108 26 25 48 146 150 221 187 101 49 178
67 295 67 189 0 323 -57 461 -197 l82 -84 91 3 91 3 -49 75 c-181 276 -515
419 -833 355z"/>
<path d="M1012 2552 c7 -10 40 -52 73 -95 l60 -77 230 0 230 1 26 77 c14 42
29 85 33 95 8 16 -12 17 -328 17 -322 0 -337 -1 -324 -18z"/>
<path d="M2815 2553 c5 -10 20 -53 34 -95 l26 -78 229 0 228 0 22 27 c11 15
45 58 74 95 l53 68 -336 0 c-317 0 -337 -1 -330 -17z"/>
<path d="M1857 2457 c-44 -41 -57 -88 -57 -202 0 -112 13 -160 55 -202 l33
-33 127 0 c147 0 173 10 205 75 15 30 20 62 20 118 l0 77 -110 0 -110 0 0 -55
0 -55 65 0 c36 0 65 -3 65 -6 0 -3 -5 -14 -10 -25 -10 -17 -22 -19 -113 -19
-67 0 -107 4 -115 12 -8 8 -12 48 -12 113 0 65 4 105 12 113 8 8 48 12 115 12
101 0 104 -1 115 -25 9 -21 18 -25 55 -25 37 0 43 3 43 20 0 35 -26 85 -59
113 -32 26 -36 27 -161 27 l-129 0 -34 -33z"/>
<path d="M2270 2435 l0 -55 215 0 215 0 0 55 0 55 -215 0 -215 0 0 -55z"/>
<path d="M1182 2340 c2 -5 32 -48 68 -94 l65 -85 141 0 140 -1 0 95 -1 95
-208 0 c-131 0 -207 -4 -205 -10z"/>
<path d="M2880 2255 l0 -95 140 0 140 0 67 86 c38 47 70 90 71 95 2 5 -86 9
-207 9 l-211 0 0 -95z"/>
<path d="M2300 2255 l0 -55 185 0 185 0 0 55 0 55 -185 0 -185 0 0 -55z"/>
<path d="M1416 2035 l76 -95 90 0 c82 0 89 2 82 18 -4 9 -19 52 -33 94 l-26
77 -133 1 -133 0 77 -95z"/>
<path d="M2270 2075 l0 -55 215 0 215 0 0 55 0 55 -215 0 -215 0 0 -55z"/>
<path d="M2849 2052 c-14 -42 -29 -85 -34 -94 -6 -16 1 -18 83 -18 l90 0 71
89 c39 49 71 92 71 95 0 3 -57 6 -127 6 l-128 0 -26 -78z"/>
<path d="M1530 1899 c0 -17 37 -76 93 -147 91 -116 239 -214 397 -264 65 -20
96 -23 225 -23 129 0 160 3 225 23 144 46 284 132 371 230 50 56 119 160 119
179 0 10 -21 13 -88 13 l-88 0 -44 -53 c-97 -116 -234 -197 -377 -222 -98 -18
-138 -18 -238 0 -129 23 -232 80 -338 186 l-88 89 -85 0 c-56 0 -84 -4 -84
-11z"/>
<path d="M1725 1239 c-273 -13 -445 -36 -445 -60 0 -40 251 -60 840 -66 683
-7 1074 17 1106 68 3 5 2 9 -3 7 -4 -1 -26 3 -48 10 -157 43 -946 66 -1450 41z"/>
</g>
</svg>
